<svg width="55" height="55" viewBox="0 0 55 55" fill="none" xmlns="http://www.w3.org/2000/svg">
<path d="M48.9844 8.59375H44.6875V5.15625C44.6875 3.26047 43.1458 1.71875 41.25 1.71875C39.3542 1.71875 37.8125 3.26047 37.8125 5.15625V8.59375H17.1875V5.15625C17.1875 3.26047 15.6458 1.71875 13.75 1.71875C11.8542 1.71875 10.3125 3.26047 10.3125 5.15625V8.59375H6.01562C3.64633 8.59375 1.71875 10.5213 1.71875 12.8906V48.9844C1.71875 51.3537 3.64633 53.2812 6.01562 53.2812H48.9844C51.3537 53.2812 53.2812 51.3537 53.2812 48.9844V12.8906C53.2812 10.5213 51.3537 8.59375 48.9844 8.59375ZM39.5312 5.15625C39.5312 4.20836 40.3021 3.4375 41.25 3.4375C42.1979 3.4375 42.9688 4.20836 42.9688 5.15625V12.0312C42.9688 12.9791 42.1979 13.75 41.25 13.75C40.3021 13.75 39.5312 12.9791 39.5312 12.0312V5.15625ZM12.0312 5.15625C12.0312 4.20836 12.8021 3.4375 13.75 3.4375C14.6979 3.4375 15.4688 4.20836 15.4688 5.15625V12.0312C15.4688 12.9791 14.6979 13.75 13.75 13.75C12.8021 13.75 12.0312 12.9791 12.0312 12.0312V5.15625ZM6.01562 10.3125H10.3125V12.0312C10.3125 13.927 11.8542 15.4688 13.75 15.4688C15.6458 15.4688 17.1875 13.927 17.1875 12.0312V10.3125H37.8125V12.0312C37.8125 13.927 39.3542 15.4688 41.25 15.4688C43.1458 15.4688 44.6875 13.927 44.6875 12.0312V10.3125H48.9844C50.4058 10.3125 51.5625 11.4692 51.5625 12.8906V18.9062H3.4375V12.8906C3.4375 11.4692 4.59422 10.3125 6.01562 10.3125ZM48.9844 51.5625H6.01562C4.59422 51.5625 3.4375 50.4058 3.4375 48.9844V20.625H51.5625V48.9844C51.5625 50.4058 50.4058 51.5625 48.9844 51.5625Z" fill="#16195E"/>
<path d="M28.3594 15.4688H26.6406V17.1875H28.3594V15.4688Z" fill="#16195E"/>
<path d="M31.7969 15.4688H30.0781V17.1875H31.7969V15.4688Z" fill="#16195E"/>
<path d="M24.9219 15.4688H23.2031V17.1875H24.9219V15.4688Z" fill="#16195E"/>
<path d="M26.6404 48.125C21.1421 48.125 16.3906 44.3514 15.0251 39.1436L18.6345 40.3468L19.1785 38.7165L14.0222 36.9978C13.7128 36.8946 13.3725 36.9754 13.1431 37.2057L9.70557 40.6432L10.9207 41.8584L13.3287 39.4504C14.8438 45.4695 20.3103 49.8437 26.6404 49.8437C33.4948 49.8437 39.3471 44.7201 40.2555 37.9259L38.5522 37.6982C37.7573 43.6425 32.6371 48.125 26.6404 48.125Z" fill="#16195E"/>
<path d="M39.953 32.7379C38.4371 26.718 32.9706 22.3438 26.6405 22.3438C19.7861 22.3438 13.9338 27.4673 13.0254 34.2616L14.7287 34.4893C15.5236 28.545 20.6438 24.0625 26.6405 24.0625C32.1388 24.0625 36.8902 27.836 38.2558 33.0438L34.6464 31.8407L34.1024 33.4709L39.2587 35.1897C39.348 35.2198 39.4409 35.2344 39.5311 35.2344C39.7554 35.2344 39.9754 35.1459 40.1387 34.9826L43.5762 31.5451L42.361 30.3299L39.953 32.7379Z" fill="#16195E"/>
<path d="M26.389 40.1389L32.4046 34.1232L31.1895 32.9081L25.7814 38.3161L23.8109 36.3456L22.5957 37.5607L25.1738 40.1389C25.3414 40.3064 25.5614 40.3907 25.7814 40.3907C26.0014 40.3907 26.2214 40.3064 26.389 40.1389Z" fill="#16195E"/>
</svg>
