<svg width="55" height="45" viewBox="0 0 55 45" fill="none" xmlns="http://www.w3.org/2000/svg">
<path d="M50.6677 2.65142H48.4357V1.31363C48.4357 0.688245 47.9287 0.181274 47.3033 0.181274C46.6779 0.181274 46.171 0.688245 46.171 1.31363V2.65142H41.8347V1.31363C41.8347 0.688245 41.3277 0.181274 40.7023 0.181274C40.077 0.181274 39.57 0.688245 39.57 1.31363V2.65142H35.2334V1.31363C35.2334 0.688245 34.7264 0.181274 34.101 0.181274C33.4757 0.181274 32.9687 0.688245 32.9687 1.31363V2.65142H28.6321V1.31363C28.6321 0.688245 28.1251 0.181274 27.4998 0.181274C26.8744 0.181274 26.3674 0.688245 26.3674 1.31363V2.65142H22.0308V1.31363C22.0308 0.688245 21.5238 0.181274 20.8985 0.181274C20.2731 0.181274 19.7661 0.688245 19.7661 1.31363V2.65142H15.4298V1.31363C15.4298 0.688245 14.9229 0.181274 14.2975 0.181274C13.6721 0.181274 13.1651 0.688245 13.1651 1.31363V2.65142H8.82855V1.31363C8.82855 0.688245 8.32158 0.181274 7.69619 0.181274C7.07081 0.181274 6.56384 0.688245 6.56384 1.31363V2.65142H4.33181C2.21237 2.65142 0.488281 4.37422 0.488281 6.49172V31.4908V40.9767C0.488281 43.0942 2.21269 44.817 4.33181 44.817H14.1089H50.6677C52.7871 44.817 54.5112 43.0942 54.5112 40.9767V6.49172C54.5112 4.37422 52.7871 2.65142 50.6677 2.65142ZM12.9765 40.9965L4.40105 32.6232H11.4559C12.2942 32.6232 12.9765 33.3052 12.9765 34.1438V40.9965ZM2.75299 40.9767V34.179L11.3285 42.5523H4.33181C3.46119 42.5523 2.75299 41.8457 2.75299 40.9767ZM52.2465 40.9767C52.2465 41.8457 51.5383 42.5523 50.6677 42.5523H15.2412V34.1438C15.2412 32.0567 13.543 30.3585 11.4559 30.3585H2.75299V6.49172C2.75299 5.62272 3.46119 4.91613 4.33181 4.91613H6.56384V6.2523C6.56384 6.87769 7.07081 7.38466 7.69619 7.38466C8.32158 7.38466 8.82855 6.87769 8.82855 6.2523V4.91613H13.1651V6.2523C13.1651 6.87769 13.6721 7.38466 14.2975 7.38466C14.9229 7.38466 15.4298 6.87769 15.4298 6.2523V4.91613H19.7661V6.2523C19.7661 6.87769 20.2731 7.38466 20.8985 7.38466C21.5238 7.38466 22.0308 6.87769 22.0308 6.2523V4.91613H26.3674V6.2523C26.3674 6.87769 26.8744 7.38466 27.4998 7.38466C28.1251 7.38466 28.6321 6.87769 28.6321 6.2523V4.91613H32.9684V6.2523C32.9684 6.87769 33.4753 7.38466 34.1007 7.38466C34.7261 7.38466 35.2331 6.87769 35.2331 6.2523V4.91613H39.5697V6.2523C39.5697 6.87769 40.0766 7.38466 40.702 7.38466C41.3274 7.38466 41.8344 6.87769 41.8344 6.2523V4.91613H46.1706V6.2523C46.1706 6.87769 46.6776 7.38466 47.303 7.38466C47.9284 7.38466 48.4353 6.87769 48.4353 6.2523V4.91613H50.6674C51.5377 4.91613 52.2462 5.62304 52.2462 6.49172V40.9767H52.2465Z" fill="#16195E"/>
<path d="M15.734 26.278C17.51 26.278 18.824 26.626 19.676 27.322C20.528 28.006 20.954 28.942 20.954 30.13C20.954 30.886 20.768 31.57 20.396 32.182C20.024 32.794 19.466 33.28 18.722 33.64C17.978 34 17.06 34.18 15.968 34.18C15.068 34.18 14.198 34.054 13.358 33.802C12.518 33.538 11.81 33.178 11.234 32.722L12.224 30.904C12.692 31.288 13.25 31.594 13.898 31.822C14.558 32.038 15.236 32.146 15.932 32.146C16.76 32.146 17.408 31.978 17.876 31.642C18.356 31.294 18.596 30.82 18.596 30.22C18.596 29.572 18.338 29.086 17.822 28.762C17.318 28.426 16.448 28.258 15.212 28.258H12.17L12.818 21.4H20.216V23.362H14.798L14.528 26.278H15.734ZM27.5597 34.18C26.5517 34.18 25.6517 33.928 24.8597 33.424C24.0677 32.908 23.4437 32.164 22.9877 31.192C22.5317 30.208 22.3037 29.044 22.3037 27.7C22.3037 26.356 22.5317 25.198 22.9877 24.226C23.4437 23.242 24.0677 22.498 24.8597 21.994C25.6517 21.478 26.5517 21.22 27.5597 21.22C28.5677 21.22 29.4677 21.478 30.2597 21.994C31.0637 22.498 31.6937 23.242 32.1497 24.226C32.6057 25.198 32.8337 26.356 32.8337 27.7C32.8337 29.044 32.6057 30.208 32.1497 31.192C31.6937 32.164 31.0637 32.908 30.2597 33.424C29.4677 33.928 28.5677 34.18 27.5597 34.18ZM27.5597 32.146C28.4597 32.146 29.1677 31.774 29.6837 31.03C30.2117 30.286 30.4757 29.176 30.4757 27.7C30.4757 26.224 30.2117 25.114 29.6837 24.37C29.1677 23.626 28.4597 23.254 27.5597 23.254C26.6717 23.254 25.9637 23.626 25.4357 24.37C24.9197 25.114 24.6617 26.224 24.6617 27.7C24.6617 29.176 24.9197 30.286 25.4357 31.03C25.9637 31.774 26.6717 32.146 27.5597 32.146ZM43.1789 28.6H39.9929V31.75H38.0669V28.6H34.8809V26.8H38.0669V23.65H39.9929V26.8H43.1789V28.6Z" fill="#16195E"/>
<path d="M8.8614 11.3424H6.09134C5.46596 11.3424 4.95898 11.8494 4.95898 12.4748C4.95898 13.1001 5.46596 13.6071 6.09134 13.6071H8.8614C9.48678 13.6071 9.99375 13.1001 9.99375 12.4748C9.99375 11.8494 9.48678 11.3424 8.8614 11.3424Z" fill="#16195E"/>
<path d="M15.4947 11.3424H12.7246C12.0993 11.3424 11.5923 11.8494 11.5923 12.4748C11.5923 13.1001 12.0993 13.6071 12.7246 13.6071H15.4947C16.1201 13.6071 16.627 13.1001 16.627 12.4748C16.627 11.8494 16.1201 11.3424 15.4947 11.3424Z" fill="#16195E"/>
<path d="M22.128 11.3424H19.3579C18.7326 11.3424 18.2256 11.8494 18.2256 12.4748C18.2256 13.1001 18.7326 13.6071 19.3579 13.6071H22.128C22.7534 13.6071 23.2604 13.1001 23.2604 12.4748C23.2604 11.8494 22.7534 11.3424 22.128 11.3424Z" fill="#16195E"/>
<path d="M28.7613 11.3424H25.9912C25.3659 11.3424 24.8589 11.8494 24.8589 12.4748C24.8589 13.1001 25.3659 13.6071 25.9912 13.6071H28.7613C29.3867 13.6071 29.8937 13.1001 29.8937 12.4748C29.8937 11.8494 29.3867 11.3424 28.7613 11.3424Z" fill="#16195E"/>
<path d="M35.3946 11.3424H32.6245C31.9992 11.3424 31.4922 11.8494 31.4922 12.4748C31.4922 13.1001 31.9992 13.6071 32.6245 13.6071H35.3946C36.02 13.6071 36.527 13.1001 36.527 12.4748C36.527 11.8494 36.02 11.3424 35.3946 11.3424Z" fill="#16195E"/>
<path d="M42.0279 11.3424H39.2578C38.6325 11.3424 38.1255 11.8494 38.1255 12.4748C38.1255 13.1001 38.6325 13.6071 39.2578 13.6071H42.0279C42.6533 13.6071 43.1603 13.1001 43.1603 12.4748C43.1603 11.8494 42.6533 11.3424 42.0279 11.3424Z" fill="#16195E"/>
<path d="M48.6612 11.3424H45.8911C45.2658 11.3424 44.7588 11.8494 44.7588 12.4748C44.7588 13.1001 45.2658 13.6071 45.8911 13.6071H48.6612C49.2866 13.6071 49.7936 13.1001 49.7936 12.4748C49.7936 11.8494 49.2866 11.3424 48.6612 11.3424Z" fill="#16195E"/>
</svg>
