<svg width="55" height="39" viewBox="0 0 55 39" fill="none" xmlns="http://www.w3.org/2000/svg">
<path d="M10.7832 29.8631C3.38427 25.4169 0 19.5 0 19.5C0 19.5 8.46067 4.69107 27.4944 4.69107C30.2483 4.69107 32.781 4.9012 35.1035 5.5316L33.4112 7.22374C31.5091 7.0136 29.6067 6.80347 27.4943 6.80347C10.573 6.80347 2.53256 19.5 2.53256 19.5C2.53256 19.5 5.7067 24.5764 12.2651 28.3809L10.7832 29.8631ZM19.0337 19.5C19.0337 20.1304 19.0337 20.7719 19.2439 21.4023L21.1461 19.5C21.1461 17.8079 21.7766 16.3259 23.0484 15.054C24.3203 13.7821 26.0124 13.1517 27.4944 13.1517L29.3968 11.2495C28.7663 11.0393 28.1249 11.0393 27.4944 11.0393C22.8383 11.0393 19.0337 14.8439 19.0337 19.5ZM44.2055 9.13706L42.7237 10.6191C49.282 14.4236 52.4563 19.5 52.4563 19.5C52.4563 19.5 44.4158 32.1965 27.4944 32.1965C25.382 32.1965 23.4797 31.9865 21.5775 31.7763L19.8853 33.4684C22.2079 34.0988 24.7516 34.3091 27.5055 34.3091C46.5393 34.3091 55 19.5001 55 19.5001C55 19.5001 51.6046 13.5831 44.2055 9.13706ZM44.3936 0.510498L8.50491 36.3992L10.5952 38.4895L46.495 2.58972L44.3936 0.510498ZM31.9405 23.9461C30.6687 25.218 29.1867 25.8484 27.4944 25.8484L25.5921 27.7505C26.2225 27.9607 26.864 27.9607 27.4944 27.9607C32.1504 27.9607 35.9551 24.1561 35.9551 19.5C35.9551 18.8696 35.9551 18.2281 35.745 17.5977L33.8427 19.5C33.8427 21.1921 33.2011 22.6743 31.9405 23.9461Z" fill="#16195E"/>
</svg>
