<svg width="25" height="25" viewBox="0 0 25 25" fill="none" xmlns="http://www.w3.org/2000/svg">
<g clip-path="url(#clip0_51_45)">
<path d="M22.679 19.3792H17.1252V24.9999L22.679 19.3792Z" fill="#16195E"/>
<path d="M22.679 1.56248C22.679 0.698824 21.9802 0 21.1165 0H3.88352C3.02069 0 2.32104 0.698824 2.32104 1.56248V23.4375C2.32104 24.3012 3.02065 25 3.88352 25H15.5359V18.3987C15.5359 17.9669 15.8853 17.6175 16.3171 17.6175H22.679V1.56248ZM4.67004 3.91499H12.5V5.67673H4.67004V3.91499ZM4.67004 8.80873H12.5V10.5705H4.67004V8.80873ZM12.5 20.358H4.67004V18.5962H12.5V20.358ZM19.9385 15.4642H4.67004V13.7025H19.9385V15.4642ZM19.9385 10.5705H15.0448V3.91499H19.9385V10.5705Z" fill="#16195E"/>
</g>
<defs>
<clipPath id="clip0_51_45">
<rect width="25" height="25" fill="white"/>
</clipPath>
</defs>
</svg>
