<svg width="25" height="25" viewBox="0 0 25 25" fill="none" xmlns="http://www.w3.org/2000/svg">
<g clip-path="url(#clip0_51_51)">
<path d="M15.7894 8.88159C15.608 8.88159 15.4604 9.02915 15.4604 9.21055V11.1842C15.4604 12.8167 16.7885 14.1448 18.421 14.1448C20.0535 14.1448 21.3815 12.8167 21.3815 11.1842V9.21055C21.3815 9.09893 21.3895 8.98911 21.405 8.88159H15.7894Z" fill="#16195E"/>
<path d="M9.2105 8.88159H3.59497C3.61045 8.98911 3.61841 9.09888 3.61841 9.21055V11.1842C3.61841 12.8167 4.94648 14.1448 6.57896 14.1448C8.21138 14.1448 9.5395 12.8167 9.5395 11.1842V9.21055C9.5394 9.02915 9.39185 8.88159 9.2105 8.88159Z" fill="#16195E"/>
<path d="M12.5 0C7.60684 0 3.37104 2.81206 1.3186 6.90791H9.2106C9.99917 6.90791 10.6962 7.30659 11.1115 7.9127C11.5258 7.69155 11.9984 7.56577 12.5001 7.56577C13.0018 7.56577 13.4744 7.69155 13.8887 7.9127C14.304 7.30659 15.001 6.90791 15.7896 6.90791H23.6816C21.6292 2.81206 17.3933 0 12.5 0Z" fill="#16195E"/>
<path d="M23.6842 6.91333V8.88149C23.5028 8.88149 23.3553 9.02905 23.3553 9.21045V11.1841C23.3553 13.9048 21.1418 16.1184 18.421 16.1184C15.7003 16.1184 13.4868 13.9049 13.4868 11.1841V10.5262C13.4868 9.98208 13.0441 9.53935 12.5 9.53935C11.9558 9.53935 11.5131 9.98203 11.5131 10.5262V11.1841C11.5131 13.9048 9.29961 16.1184 6.57886 16.1184C3.85815 16.1184 1.64463 13.9049 1.64463 11.1841V9.21045C1.64463 9.02905 1.49707 8.88149 1.31567 8.88149V6.91333C0.474268 8.59473 0 10.4918 0 12.4999C0 19.4035 5.59644 24.9999 12.5 24.9999C19.4036 24.9999 25 19.4035 25 12.4999C25 10.4918 24.5257 8.59473 23.6842 6.91333ZM12.5 21.3815C9.88232 21.3815 7.58691 19.9615 6.35986 17.583L8.11382 16.6781C9.00889 18.4129 10.6075 19.4078 12.5 19.4078C14.3924 19.4078 15.9911 18.4129 16.8862 16.678L18.6401 17.583C17.413 19.9615 15.1176 21.3815 12.5 21.3815Z" fill="#16195E"/>
</g>
<defs>
<clipPath id="clip0_51_51">
<rect width="25" height="25" fill="white"/>
</clipPath>
</defs>
</svg>
