<svg width="25" height="25" viewBox="0 0 25 25" fill="none" xmlns="http://www.w3.org/2000/svg">
<g clip-path="url(#clip0_51_89)">
<path d="M2.84271 10.2788L2.85021 10.285C2.86854 10.3005 2.87812 10.3213 2.89354 10.3388C2.91187 10.3605 2.93437 10.378 2.94854 10.4042C3.14936 10.7709 3.46394 10.9738 3.88392 11.0084C4.62723 11.0638 5.5422 10.5784 6.16218 9.7884C6.46592 9.40216 6.81466 9.05759 7.20006 8.76343C8.23253 7.97471 9.22333 7.65972 10.7287 7.73638C8.92959 6.80808 6.96507 6.20227 5.10305 6.20227C5.0943 6.20227 5.08722 6.1981 5.07888 6.19727C5.05263 6.20268 5.02805 6.2131 5.00014 6.2131H4.19308C3.44436 7.18723 2.80188 8.38719 2.35522 9.87006L2.84104 10.2767C2.84146 10.2775 2.84188 10.2784 2.84271 10.2788Z" fill="#16195E"/>
<path d="M5.0241 5.38476C5.05035 5.37934 5.07494 5.36892 5.10285 5.36892C7.72693 5.36892 10.5398 6.49305 12.8768 8.05133C12.888 8.05842 12.8984 8.06592 12.9088 8.07383C14.658 9.24546 16.1392 10.6579 17.0662 12.0262C17.3883 12.5016 17.6291 12.9524 17.7878 13.3732C17.8833 12.762 17.7658 12.0975 17.4195 11.3641C15.7079 7.74176 9.34396 4.15771 7.66193 4.15771H6.32073C5.83533 4.50479 5.36034 4.90977 4.90869 5.38017H4.99994C5.00869 5.38017 5.01577 5.38434 5.0241 5.38476Z" fill="#16195E"/>
<path d="M20.5602 8.56608C20.9951 8.9169 21.2981 9.33605 21.5197 9.65104C21.5339 9.67187 21.5493 9.69396 21.5651 9.71604C21.616 9.55146 21.6826 9.30314 21.766 8.92606L22.0668 7.65819C20.5806 4.87953 18.2969 3.47791 16.3486 2.77002C17.8773 3.9329 19.7506 6.17782 20.5602 8.56608Z" fill="#16195E"/>
<path d="M19.4102 10.6343C19.6394 11.4492 19.686 12.1963 19.5594 12.8671C19.854 12.4134 20.0385 11.9038 20.1048 11.3372C20.4439 8.4385 17.7832 4.83237 15.7316 3.34325L13.8467 2.14579C13.1817 2.05246 12.7363 2.04663 12.6563 2.04663C12.5538 2.04663 11.8034 2.05538 10.7393 2.27162H10.7855C13.2613 2.27204 18.319 6.75689 19.4102 10.6343Z" fill="#16195E"/>
<path d="M18.1727 11.0083C18.5106 11.7233 18.6606 12.412 18.6427 13.0645C18.8527 12.4332 18.8435 11.6979 18.6077 10.86C17.5815 7.213 12.7462 3.10522 10.7854 3.10522H8.15261C8.00012 3.17439 7.84679 3.24814 7.69263 3.32605C9.83047 3.36188 16.4111 7.27967 18.1727 11.0083Z" fill="#16195E"/>
<path d="M9.95885 10.7969C9.10679 10.7969 8.37474 11.3123 8.05225 12.0468H11.8655C11.5434 11.3123 10.8113 10.7969 9.95885 10.7969Z" fill="#16195E"/>
<path d="M24.9138 10.4804C24.6288 9.27627 23.6721 8.45005 22.7955 8.66212C22.7542 8.67171 22.7155 8.68879 22.6755 8.70296L22.5784 9.11294C22.4563 9.66251 22.3526 10.0554 22.2259 10.3217C22.1001 10.5862 21.9518 10.7254 21.7401 10.7675C21.6997 10.7758 21.6614 10.7791 21.6239 10.7791C21.3393 10.7791 21.1414 10.5537 20.9372 10.2704C20.9735 10.6621 20.9772 11.0516 20.9326 11.4345C20.7426 13.0566 19.751 14.3299 18.0744 15.1502C17.9652 15.2307 17.8519 15.3086 17.7315 15.3827C17.7311 15.3827 17.7307 15.3832 17.7302 15.3836C17.7257 15.3865 17.7219 15.3894 17.7173 15.3923C17.6965 15.4052 17.674 15.4119 17.6523 15.4206C17.6402 15.4252 17.6294 15.4323 17.6169 15.4361C17.5786 15.4473 17.5394 15.4536 17.5007 15.4536C17.5007 15.4536 17.5007 15.4536 17.5002 15.4536C17.4998 15.4536 17.4998 15.4536 17.4994 15.4536C17.4528 15.4536 17.4073 15.4427 17.3632 15.4273C17.3573 15.4252 17.3515 15.4265 17.3457 15.424C17.3403 15.4219 17.3369 15.4173 17.3319 15.4152C17.2873 15.3956 17.2457 15.3702 17.2098 15.3352C17.2061 15.3315 17.2036 15.3269 17.1998 15.3232C17.1798 15.3019 17.1603 15.2802 17.1444 15.2544C17.139 15.2457 17.139 15.2357 17.1344 15.2265C17.1211 15.2011 17.1132 15.1748 17.1057 15.1477C17.0986 15.1219 17.0915 15.0977 17.089 15.0715C17.0873 15.0527 17.0878 15.0344 17.089 15.0152C17.0878 15.004 17.0882 14.9936 17.0878 14.9823C17.0865 14.9548 17.0911 14.9294 17.0953 14.9028C17.099 14.8769 17.1019 14.8515 17.1107 14.8265C17.1194 14.8015 17.1332 14.7798 17.1465 14.7569C17.2736 14.2282 17.0023 13.4178 16.3774 12.4941C15.5132 11.2179 14.1399 9.90208 12.5196 8.80379C10.0517 8.3513 8.91887 8.49921 7.70641 9.42668C7.37684 9.67834 7.0781 9.97333 6.81811 10.3037C6.07021 11.2575 4.98692 11.847 4.00903 11.847C3.94445 11.847 3.87987 11.8445 3.81654 11.8391C3.15114 11.7845 2.60658 11.4445 2.26701 10.8829L2.12076 10.7608C2.07118 10.9745 2.02243 11.1887 1.98077 11.4133C1.97452 11.4479 1.97035 11.4824 1.9641 11.517C1.85827 11.4879 1.75078 11.4679 1.64078 11.4679C0.720809 11.4679 0 12.4607 0 13.7278C0 14.9952 0.720809 15.9881 1.6412 15.9881C1.80911 15.9881 1.97368 15.9452 2.1316 15.8769C2.42367 16.9898 2.90782 18.0347 3.57238 18.9509C4.89692 20.7767 7.50808 22.9529 12.4288 22.9529L12.6571 22.9512L12.8446 22.9525C13.0125 22.9525 13.1704 22.9433 13.3325 22.9379L17.9157 22.0008C19.4785 21.3259 20.771 20.3034 21.753 18.9505C22.953 17.296 23.5638 15.2232 23.5151 13.0857C23.5292 13.0861 23.5438 13.0916 23.5584 13.0916C23.6534 13.0916 23.7475 13.0807 23.8388 13.0586C24.7338 12.8457 25.2058 11.7129 24.9138 10.4804ZM1.6412 15.1548C1.25912 15.1548 0.833306 14.5686 0.833306 13.7278C0.833306 12.887 1.25912 12.3012 1.6412 12.3012C1.71078 12.3012 1.78077 12.3208 1.85119 12.3591C1.83077 12.5803 1.81744 12.8007 1.81119 13.0211C1.81077 13.0395 1.81119 13.0578 1.81036 13.0761C1.80619 13.2553 1.80661 13.4345 1.81202 13.6124C1.81369 13.6749 1.81577 13.737 1.81869 13.799C1.82536 13.9411 1.83536 14.0819 1.84786 14.2228C1.85369 14.2882 1.85744 14.354 1.86452 14.419C1.8841 14.5994 1.90827 14.7786 1.93744 14.9565C1.9416 14.9811 1.94327 15.0057 1.94744 15.0302C1.8616 15.0998 1.75744 15.1548 1.6412 15.1548ZM7.04227 12.8799C7.04227 11.272 8.35056 9.96333 9.95884 9.96333C11.5671 9.96333 12.8754 11.272 12.8754 12.8799C12.8754 14.4878 11.5671 15.7965 9.95884 15.7965C8.35056 15.7965 7.04227 14.4878 7.04227 12.8799ZM16.457 20.018C16.2399 20.0934 16.0024 19.9792 15.9266 19.7622C15.7366 19.2184 15.3612 18.5489 14.6487 18.4422C13.7633 18.3114 12.62 19.0614 11.5971 20.4546C11.5154 20.5659 11.3888 20.6246 11.2609 20.6246C11.1755 20.6246 11.0888 20.5984 11.0146 20.5438C10.8292 20.408 10.7892 20.1472 10.9255 19.9617C12.1521 18.2897 13.5541 17.4352 14.772 17.6181C15.6482 17.7493 16.3378 18.413 16.7128 19.4872C16.789 19.7047 16.6744 19.9422 16.457 20.018ZM23.6455 12.2487C23.588 12.2624 23.528 12.262 23.4638 12.2483C23.4621 12.2328 23.4592 12.2187 23.4576 12.2033C23.4292 11.9399 23.3938 11.6766 23.3451 11.4133C23.2888 11.1091 23.2221 10.8187 23.1513 10.5346C23.1384 10.4829 23.1246 10.4312 23.1113 10.38C23.0347 10.0875 22.9526 9.80292 22.8622 9.53084C22.9034 9.5021 22.9459 9.48251 22.9892 9.4721C23.3663 9.38502 23.9075 9.84542 24.1034 10.6721C24.2967 11.4908 24.018 12.1599 23.6455 12.2487Z" fill="#16195E"/>
<path d="M10.3759 14.1299C10.1459 14.1299 9.95923 13.9433 9.95923 13.7133C9.95923 13.4833 10.1459 13.2966 10.3759 13.2966C10.6059 13.2966 10.7925 13.4833 10.7925 13.7133C10.7925 13.9433 10.6059 14.1299 10.3759 14.1299Z" fill="#16195E"/>
</g>
<defs>
<clipPath id="clip0_51_89">
<rect width="25" height="25" fill="white"/>
</clipPath>
</defs>
</svg>
