<svg width="32" height="32" viewBox="0 0 32 32" fill="none" xmlns="http://www.w3.org/2000/svg">
<path d="M13.1124 4.65346C12.9952 4.65204 12.8744 4.662 12.7458 4.66483L14.1457 9.66249C14.6874 9.40258 15.31 9.24798 16.0212 9.24047C16.7309 9.27703 17.34 9.44191 17.8663 9.69112L19.2468 4.66483C19.1388 4.64159 19.0265 4.6991 18.9393 4.71284C16.9668 5.66806 15.0779 5.60172 13.4559 4.71713C13.3432 4.67064 13.2296 4.65702 13.1124 4.65532V4.65346ZM11.7688 4.68027C11.4736 4.67177 11.1571 4.71583 10.9007 4.74758L12.5389 11.0132C12.7571 10.7115 13.018 10.4381 13.3128 10.1968L11.7688 4.68027ZM20.668 4.69628C20.523 4.68919 20.3785 4.69203 20.2146 4.70337L18.7038 10.208C19.0288 10.461 19.2513 10.7373 19.4795 11.0289L21.1233 4.74952C20.9585 4.71962 20.813 4.70346 20.668 4.6968V4.69628ZM9.99577 5.01856C9.4283 5.26608 8.91848 5.64218 8.51734 6.13315L1.73557 14.4331C1.21605 15.0689 1.26301 16.006 1.84361 16.5866L2.28409 17.0261C2.86496 17.607 3.80651 17.6447 4.43018 17.1102L8.51457 13.6085L8.70295 11.5649C8.7786 11.4064 8.93565 11.3033 9.11111 11.2962C9.18816 11.2919 9.26494 11.3089 9.33458 11.3414C9.57114 11.4538 9.60532 11.7149 9.55806 11.973C9.39597 13.5499 9.43046 15.1405 9.40107 16.7241C9.95436 16.4454 10.4772 16.104 11.0097 15.7868C11.5933 15.1911 11.71 14.5271 11.6727 13.6445C11.674 13.1865 11.7519 12.7303 11.8953 12.2888L9.99577 5.01856ZM22.0273 5.02708L20.1232 12.2983C20.2681 12.7456 20.3429 13.1992 20.3503 13.6456C20.2767 14.8501 20.5 15.2174 20.9561 15.6781L22.5869 16.7474C22.5581 15.1663 22.5674 13.588 22.5094 12.0194C22.4502 11.8015 22.5169 11.501 22.7568 11.3979C22.8185 11.372 22.8855 11.3588 22.9526 11.36C23.1385 11.3643 23.305 11.4756 23.3783 11.6463L23.4503 13.5745L27.5698 17.1057C28.1935 17.6403 29.136 17.6062 29.7168 17.0254L30.1564 16.5858C30.737 16.0052 30.7839 15.0682 30.2644 14.4323L23.4836 6.13246C23.0879 5.64819 22.5856 5.27569 22.0273 5.02712V5.02708ZM16 10.1882C13.8011 10.2239 12.6213 12.0266 12.6147 13.6336C12.654 14.6256 12.491 15.6569 11.6256 16.5138L10.0004 17.4871L8.95874 17.9738C8.9353 18.1012 8.91904 18.2297 8.91904 18.3616V25.9283C8.91904 26.7061 9.56153 27.3458 10.3393 27.3458H11.7559C12.5088 27.3458 13.2058 26.9453 13.5852 26.2949L16.0111 22.1385L18.436 26.2949C18.8154 26.9453 19.5124 27.3458 20.2654 27.3458H21.6856C22.4634 27.3458 23.1031 26.7061 23.1031 25.9283V18.3616C23.1031 18.2913 23.096 18.223 23.0892 18.1538L22.0476 17.5259L20.3318 16.3938C19.7141 15.7805 19.331 14.9796 19.4056 13.6373C19.3628 11.4506 17.6891 10.3071 16 10.1882H16ZM14.1217 12.2143C14.3828 12.2152 14.5937 12.4278 14.5927 12.6889C14.5917 12.9486 14.3814 13.1589 14.1217 13.1599C13.8606 13.1608 13.6481 12.9501 13.6471 12.6889C13.646 12.4264 13.8592 12.2132 14.1217 12.2143ZM17.9041 12.2143C18.1653 12.2152 18.3761 12.4278 18.3751 12.6889C18.3741 12.9486 18.1638 13.1589 17.9041 13.1599C17.643 13.1608 17.4305 12.9501 17.4295 12.6889C17.4285 12.4264 17.6416 12.2132 17.9041 12.2143ZM14.1189 15.9994H17.9023C18.2953 15.9994 18.6576 16.1571 18.9079 16.4353C19.1582 16.7136 19.2781 17.1475 19.1379 17.5527C18.6888 18.8501 17.4552 19.7791 16.0111 19.7791C14.567 19.7791 13.3325 18.8528 12.8834 17.5555C12.7431 17.1503 12.8639 16.7136 13.1142 16.4353C13.3645 16.157 13.7259 15.9994 14.1189 15.9994ZM14.1189 16.9451C13.9897 16.9451 13.8719 17.0039 13.8151 17.067C13.7584 17.13 13.7475 17.159 13.7773 17.2451C14.0972 18.1693 14.972 18.8362 16.0111 18.8362C17.0502 18.8362 17.924 18.1694 18.244 17.2451C18.2738 17.159 18.2629 17.13 18.2061 17.067C18.1493 17.0039 18.0315 16.9451 17.9023 16.9451H14.1189Z" fill="#16195E"/>
</svg>
