<svg width="25" height="25" viewBox="0 0 25 25" fill="none" xmlns="http://www.w3.org/2000/svg">
<g clip-path="url(#clip0_51_29)">
<path d="M15.4873 19.4223V18.691C15.4873 18.5808 15.398 18.4915 15.2878 18.4915H9.71247C9.6023 18.4915 9.51294 18.5808 9.51294 18.691V19.4223C9.51294 19.5324 9.6023 19.6219 9.71247 19.6219H15.2878C15.398 19.6219 15.4873 19.5324 15.4873 19.4223Z" fill="#16195E"/>
<path d="M10.5199 20.3225C10.4097 20.3225 10.3203 20.4118 10.3203 20.5219V21.2533C10.3203 21.3635 10.4097 21.4528 10.5199 21.4528H14.4806C14.5908 21.4528 14.6801 21.3635 14.6801 21.2533V20.5219C14.6801 20.4118 14.5908 20.3225 14.4806 20.3225H10.5199Z" fill="#16195E"/>
<path d="M22.0829 11.2209C22.0406 11.1589 21.9742 11.1173 21.9 11.1061L20.8312 10.9455C20.7372 10.9311 20.643 10.9675 20.5824 11.0408L16.8644 15.5502C16.7929 15.6368 16.7825 15.7585 16.8381 15.856C17.1426 16.3901 17.4622 17.0176 17.8403 17.8247L17.7896 17.9711C17.39 19.0851 16.9633 20.0401 16.588 20.6602L16.5728 20.6854C16.5706 20.689 16.5685 20.6928 16.5664 20.6964L16.5522 20.7226C16.1715 21.4265 15.57 22.0644 14.8587 22.5188C14.1163 22.9929 13.3006 23.2435 12.5001 23.2435C10.7474 23.2435 9.18538 21.9483 8.41538 20.6657C8.41467 20.6645 8.41284 20.6614 8.41208 20.6602C8.03692 20.0403 7.61024 19.0852 7.21129 17.9731C7.21102 17.9722 7.18961 17.9106 7.16134 17.8213C7.5385 17.0163 7.85745 16.3898 8.16201 15.8558C8.21758 15.7583 8.20715 15.6365 8.13574 15.5499L4.44034 11.0683C4.38163 10.9972 4.29076 10.9609 4.19908 10.972L3.1077 11.1051C3.02883 11.1147 2.95812 11.1586 2.9145 11.225C2.87087 11.2914 2.85866 11.3738 2.8812 11.45L3.88905 14.8609C3.91295 14.9419 3.97338 15.007 4.05231 15.037C4.30833 15.1343 4.50483 15.4205 4.60575 15.843C4.60635 15.8456 4.60694 15.848 4.60765 15.8505C4.83464 16.6945 5.32094 18.1374 5.89595 19.4598C6.23625 20.3108 6.57719 21.0207 6.90889 21.5689C7.85901 23.1516 9.89343 25.0001 12.5001 25.0001C14.7324 25.0001 16.9796 23.6196 18.0941 21.5641C18.4256 21.0155 18.7655 20.3073 19.1044 19.4592C19.6795 18.1367 20.1656 16.6942 20.3925 15.8506C20.3932 15.8481 20.3938 15.8456 20.3944 15.8432C20.4953 15.4206 20.6918 15.1344 20.9478 15.0371C21.0065 15.0148 21.0662 14.9767 21.0867 14.9182L22.1232 11.4332C22.14 11.3598 22.1254 11.2829 22.0829 11.2209Z" fill="#16195E"/>
<path d="M14.4806 17.7909C14.5908 17.7909 14.6801 17.7016 14.6801 17.5914V16.8602C14.6801 16.7499 14.5908 16.6606 14.4806 16.6606H10.5199C10.4097 16.6606 10.3203 16.7499 10.3203 16.8602V17.5914C10.3203 17.7016 10.4097 17.7909 10.5199 17.7909H14.4806Z" fill="#16195E"/>
<path d="M19.9608 10.6379C20.0196 10.5667 20.0379 10.4703 20.0093 10.3824C19.9807 10.2945 19.9091 10.2273 19.8197 10.2042C18.4814 9.85962 17.4478 9.21174 16.7475 8.27854C16.2174 7.57216 15.895 6.72502 15.7891 5.76063C15.7797 5.67467 15.7297 5.59845 15.6548 5.55553C15.5797 5.51255 15.4887 5.50812 15.4099 5.54347C14.4609 5.96934 13.0628 6.477 11.7908 6.47711C11.2802 6.47711 10.8267 6.39429 10.4427 6.23088C9.88651 5.99421 9.46264 5.59542 9.18262 5.04566C9.12526 4.933 8.99736 4.87505 8.87503 4.9064C6.02672 5.63208 4.93669 8.40892 4.5405 9.99958C4.51942 10.0841 4.5404 10.1736 4.59683 10.2399L8.44121 14.7634C8.49268 14.824 8.56803 14.8587 8.64718 14.8587C8.65085 14.8587 8.65447 14.8586 8.6582 14.8585C8.74129 14.8551 8.81816 14.8136 8.86665 14.7462C9.93435 13.2606 11.055 12.5981 12.5003 12.5981C13.9455 12.5981 15.0661 13.2606 16.1338 14.7462C16.1827 14.8143 16.2605 14.8558 16.3443 14.8585C16.4284 14.8617 16.5085 14.8251 16.5618 14.7604L19.9608 10.6379Z" fill="#16195E"/>
<path d="M4.09906 5.0595L4.22296 6.98234C4.23134 7.11272 4.32551 7.22165 4.45336 7.24884C4.58104 7.27587 4.71143 7.21484 4.77219 7.09905C5.8553 5.03501 7.55612 3.80589 9.69087 3.54452C9.69087 3.54452 10.0172 3.50041 10.1273 3.60674C10.2191 3.69551 10.2838 3.95617 10.2838 3.95617C10.4132 4.49562 10.6787 4.84413 11.0956 5.02144C11.3371 5.12415 11.6287 5.17626 11.9624 5.17626C13.4265 5.17626 15.5179 4.10527 16.1042 3.79222C16.6267 3.51322 17.0519 3.61161 16.9106 4.36377C16.8808 4.52216 16.627 6.06043 17.6106 7.3569C18.1899 8.12047 19.1058 8.62905 20.3329 8.86858C20.4213 8.88009 20.5154 8.85296 20.5668 8.81333C20.6332 8.76214 20.6743 8.68484 20.6798 8.60115L20.91 5.02695C20.91 5.02695 21.0578 3.54966 20.097 2.31735C18.8826 0.759892 16.2055 0 12.5035 0C8.80156 0 6.14737 0.778109 4.90999 2.31735C3.91359 3.55701 4.09068 4.79094 4.09906 5.0595Z" fill="#16195E"/>
</g>
<defs>
<clipPath id="clip0_51_29">
<rect width="25" height="25" fill="white"/>
</clipPath>
</defs>
</svg>
