<svg width="25" height="25" viewBox="0 0 25 25" fill="none" xmlns="http://www.w3.org/2000/svg">
<g clip-path="url(#clip0_51_64)">
<path d="M24.9501 9.17001C24.782 8.29619 24.2063 7.67473 23.4476 7.54821C19.674 6.91866 17.8076 5.81033 16.3152 3.31277C16.1624 3.0568 15.8861 2.90015 15.5879 2.90015H9.41212C9.11389 2.90015 8.83771 3.0568 8.68476 3.31277C7.19234 5.81042 5.32601 6.91875 1.55253 7.54821C0.793772 7.67473 0.218098 8.29619 0.0499166 9.17001C-0.120706 10.0577 0.124412 11.2454 1.12264 12.378H23.8774C24.8756 11.2454 25.1208 10.0578 24.9501 9.17001ZM12.5 10.7682C11.4021 10.7682 10.5089 9.87498 10.5089 8.77708C10.5089 7.67919 11.4021 6.78601 12.5 6.78601C13.5979 6.78601 14.4911 7.67919 14.4911 8.77708C14.4911 9.87498 13.5979 10.7682 12.5 10.7682Z" fill="#16195E"/>
<path d="M12.5 7.97217C12.0562 7.97217 11.6951 8.33328 11.6951 8.77713C11.6951 9.22099 12.0562 9.5821 12.5 9.5821C12.9438 9.5821 13.3049 9.22107 13.3049 8.77713C13.305 8.33328 12.9439 7.97217 12.5 7.97217Z" fill="#16195E"/>
<path d="M22.4713 15.1741C22.9156 15.1741 23.279 14.8331 23.279 14.4165V14.3218C23.279 13.9051 22.9156 13.5642 22.4713 13.5642H2.52869C2.08416 13.5642 1.72095 13.9051 1.72095 14.3218V14.4165C1.72095 14.8331 2.08416 15.1741 2.52869 15.1741H22.4713Z" fill="#16195E"/>
<path d="M5.24751 20.4369C7.2289 21.5094 9.80466 22.1002 12.4999 22.1002C15.1954 22.1002 17.7712 21.5094 19.7526 20.4369C21.7307 19.3661 22.9076 17.8921 23.0229 16.3604H1.97705C2.09229 17.8921 3.26922 19.3662 5.24751 20.4369Z" fill="#16195E"/>
</g>
<defs>
<clipPath id="clip0_51_64">
<rect width="25" height="25" fill="white"/>
</clipPath>
</defs>
</svg>
