<svg width="25" height="25" viewBox="0 0 25 25" fill="none" xmlns="http://www.w3.org/2000/svg">
<g clip-path="url(#clip0_51_84)">
<path d="M1.62678 15.999C1.62678 15.999 2.16193 16.1058 3.03523 16.2614L3.05034 13.9409C3.05155 13.7508 3.19862 13.6199 3.37881 13.6486L5.2221 13.9415C5.40225 13.9702 5.54734 14.1476 5.54602 14.3377L5.5308 16.6754C6.22006 16.7813 6.96453 16.8885 7.73317 16.9878L7.74811 14.6878C7.74938 14.4976 7.89644 14.3667 8.07659 14.3954L9.91982 14.6884C10.1 14.717 10.2451 14.8944 10.2438 15.0845L10.2296 17.2666C12.3527 17.4615 14.4115 17.5271 15.7915 17.2815C15.9672 17.2502 15.8865 14.9667 13.7269 11.8591C13.3515 11.3189 16.5722 11.7721 17.2215 16.8922C19.5608 16.0017 21.3084 13.8557 21.0005 12.1185C20.2569 7.91501 17.5638 5.147 13.375 4.28078C5.92757 2.74025 0.66327 6.49628 0.0219753 13.745C-0.0957574 15.0649 0.234422 15.7306 1.62678 15.999Z" fill="#16195E"/>
<path d="M22.3578 13.4339C20.6017 17.3782 17.3105 18.4238 13.6118 18.426C10.0955 18.428 2.71373 17.0886 1.29221 16.759C-0.129322 16.4293 -0.218157 16.6408 0.387318 16.989C4.14213 19.1488 13.5687 21.4603 19.896 21.0024C22.4238 20.8197 24.017 18.8412 24.8967 16.5739C25.5728 14.831 22.7241 12.6716 22.3578 13.4339Z" fill="#16195E"/>
</g>
<defs>
<clipPath id="clip0_51_84">
<rect width="25" height="25" fill="white"/>
</clipPath>
</defs>
</svg>
