<svg width="19" height="25" viewBox="0 0 19 25" fill="none" xmlns="http://www.w3.org/2000/svg">
<path d="M9.5 24.8906C7.96875 24.8906 0.203125 24.7813 0.203125 22.7031C0.203125 21.2813 3.64844 20.7891 6.76562 20.625V18.875H6.21875C5.89062 18.875 5.67188 18.6563 5.67188 18.3281V10.9453C4.03125 9.63282 3.26563 7.55469 3.53906 5.42188C3.92188 2.79688 6.10938 0.664065 8.73438 0.33594C12.3984 -0.10156 15.5156 2.74219 15.5156 6.29688C15.5156 8.10156 14.6953 9.79688 13.3281 10.9453V18.3281C13.3281 18.6563 13.1094 18.875 12.7812 18.875H12.2344V20.625C15.3516 20.7891 18.7969 21.3359 18.7969 22.7031C18.7969 24.7813 11.0312 24.8906 9.5 24.8906ZM1.40625 22.7031C2.00781 23.1406 4.74219 23.7969 9.5 23.7969C14.2578 23.7969 16.9922 23.1406 17.5938 22.7031C17.1016 22.375 15.3516 21.8281 11.6328 21.6641H11.0859V17.7813H12.1797V10.3984L12.2891 10.2891C13.3828 9.46875 14.1484 8.26563 14.3125 6.84375C14.6953 3.5625 11.7969 0.828128 8.51562 1.42969C6.4375 1.8125 4.85156 3.50782 4.57812 5.58594C4.35938 7.39063 5.07031 9.14063 6.49219 10.1797L6.71094 10.3438V17.7813H7.80469V21.6641H7.25781C3.64844 21.8281 1.84375 22.375 1.40625 22.7031Z" fill="white"/>
</svg>
