<svg width="22" height="30" viewBox="0 0 22 30" fill="none" xmlns="http://www.w3.org/2000/svg">
<path d="M16.625 19.2188H13.8125V16.9734C14.5314 16.5056 15.1223 15.8657 15.5315 15.1119C15.9408 14.358 16.1555 13.514 16.1562 12.6562V11.7188H16.625C16.9976 11.7176 17.3547 11.5691 17.6181 11.3056C17.8816 11.0422 18.0301 10.6851 18.0312 10.3125V9.375C18.0301 9.00238 17.8816 8.64534 17.6181 8.38186C17.3547 8.11838 16.9976 7.96986 16.625 7.96875H16.1562V7.5H16.625C16.7493 7.5 16.8685 7.45061 16.9565 7.36271C17.0444 7.2748 17.0938 7.15557 17.0938 7.03125V3.28125C17.0938 2.65965 16.8468 2.06351 16.4073 1.62397C15.9677 1.18443 15.3716 0.9375 14.75 0.9375H7.25C6.6284 0.9375 6.03226 1.18443 5.59272 1.62397C5.15318 2.06351 4.90625 2.65965 4.90625 3.28125V7.03125C4.90625 7.15557 4.95564 7.2748 5.04354 7.36271C5.13145 7.45061 5.25068 7.5 5.375 7.5H5.84375V7.96875H5.375C5.00238 7.96986 4.64534 8.11838 4.38186 8.38186C4.11838 8.64534 3.96986 9.00238 3.96875 9.375V10.3125C3.96986 10.6851 4.11838 11.0422 4.38186 11.3056C4.64534 11.5691 5.00238 11.7176 5.375 11.7188H5.84375V12.6562C5.84449 13.514 6.05922 14.358 6.46847 15.1119C6.87772 15.8657 7.46857 16.5056 8.1875 16.9734V19.2188H5.375C4.00774 19.2196 2.69674 19.7631 1.72994 20.7299C0.763144 21.6967 0.219619 23.0077 0.21875 24.375V28.5938C0.21875 28.7181 0.268136 28.8373 0.356044 28.9252C0.443951 29.0131 0.56318 29.0625 0.6875 29.0625H21.3125C21.4368 29.0625 21.556 29.0131 21.644 28.9252C21.7319 28.8373 21.7812 28.7181 21.7812 28.5938V24.375C21.7804 23.0077 21.2369 21.6967 20.2701 20.7299C19.3033 19.7631 17.9923 19.2196 16.625 19.2188ZM5.84375 10.7812H5.375C5.25068 10.7812 5.13145 10.7319 5.04354 10.644C4.95564 10.556 4.90625 10.4368 4.90625 10.3125V9.375C4.90625 9.25068 4.95564 9.13145 5.04354 9.04354C5.13145 8.95564 5.25068 8.90625 5.375 8.90625H5.84375V10.7812ZM15.2188 10.1203L14.5812 10.7578L11.0562 10.3172C11.0189 10.3125 10.9811 10.3125 10.9437 10.3172L7.41875 10.7578L6.78125 10.1203V7.5H15.2188V10.1203ZM16.625 8.90625C16.7493 8.90625 16.8685 8.95564 16.9565 9.04354C17.0444 9.13145 17.0938 9.25068 17.0938 9.375V10.3125C17.0938 10.4368 17.0444 10.556 16.9565 10.644C16.8685 10.7319 16.7493 10.7812 16.625 10.7812H16.1562V8.90625H16.625ZM5.84375 3.28125C5.84486 2.90863 5.99338 2.55159 6.25686 2.28811C6.52034 2.02463 6.87738 1.87611 7.25 1.875H14.75C15.1226 1.87611 15.4797 2.02463 15.7431 2.28811C16.0066 2.55159 16.1551 2.90863 16.1562 3.28125V6.5625H5.84375V3.28125ZM6.78125 12.6562V11.4422L6.91719 11.5828C6.96766 11.633 7.02899 11.671 7.09645 11.6937C7.1639 11.7165 7.23568 11.7234 7.30625 11.7141L11 11.2547L14.6938 11.7141C14.7122 11.7179 14.7311 11.7195 14.75 11.7188C14.8745 11.7191 14.9941 11.6702 15.0828 11.5828L15.2188 11.4422V12.6562C15.2177 13.4321 15.0028 14.1926 14.5976 14.8542C14.1923 15.5158 13.6125 16.0528 12.9219 16.4062H12.875V16.4297C12.2933 16.7223 11.6512 16.8748 11 16.8748C10.3488 16.8748 9.7067 16.7223 9.125 16.4297V16.4062H9.07812C8.38748 16.0528 7.80766 15.5158 7.40244 14.8542C6.99721 14.1926 6.78227 13.4321 6.78125 12.6562ZM10.5312 28.125H1.15625V24.375C1.15799 23.2567 1.60302 22.1846 2.39381 21.3938C3.1846 20.603 4.25665 20.158 5.375 20.1562H6.78125V22.5656C6.33938 22.6797 5.95429 22.951 5.69816 23.3288C5.44202 23.7065 5.33244 24.1646 5.38994 24.6173C5.44745 25.0701 5.66809 25.4863 6.01052 25.788C6.35294 26.0896 6.79364 26.2561 7.25 26.2561C7.70636 26.2561 8.14706 26.0896 8.48948 25.788C8.83191 25.4863 9.05255 25.0701 9.11006 24.6173C9.16756 24.1646 9.05798 23.7065 8.80184 23.3288C8.54571 22.951 8.16062 22.6797 7.71875 22.5656V20.1562H8.27656C8.54375 20.8734 9.41562 21.4172 10.5312 21.5344V28.125ZM7.25 23.4375C7.43542 23.4375 7.61668 23.4925 7.77085 23.5955C7.92502 23.6985 8.04518 23.8449 8.11614 24.0162C8.18709 24.1875 8.20566 24.376 8.16949 24.5579C8.13331 24.7398 8.04402 24.9068 7.91291 25.0379C7.7818 25.169 7.61475 25.2583 7.4329 25.2945C7.25104 25.3307 7.06254 25.3121 6.89123 25.2411C6.71993 25.1702 6.57351 25.05 6.4705 24.8958C6.36748 24.7417 6.3125 24.5604 6.3125 24.375C6.31324 24.1266 6.41225 23.8886 6.58791 23.7129C6.76356 23.5373 7.00159 23.4382 7.25 23.4375ZM9.125 19.6875V17.4563C10.3299 17.9313 11.6701 17.9313 12.875 17.4563V19.6875C12.875 20.1281 12.0734 20.625 11 20.625C9.92656 20.625 9.125 20.1281 9.125 19.6875ZM16.625 28.125H13.8125V24.8438H16.625V28.125ZM20.8438 28.125H17.5625V24.375C17.5625 24.2507 17.5131 24.1315 17.4252 24.0435C17.3373 23.9556 17.2181 23.9062 17.0938 23.9062H13.3438C13.2194 23.9062 13.1002 23.9556 13.0123 24.0435C12.9244 24.1315 12.875 24.2507 12.875 24.375V28.125H11.4688V21.5344C12.5844 21.4172 13.4563 20.8734 13.7234 20.1562H16.625C17.7433 20.158 18.8154 20.603 19.6062 21.3938C20.397 22.1846 20.842 23.2567 20.8438 24.375V28.125Z" fill="white"/>
</svg>
