<svg width="27" height="18" viewBox="0 0 27 18" fill="none" xmlns="http://www.w3.org/2000/svg">
<path d="M26.2911 6.25001C24.1058 6.4004 20.9881 8.6004 19.4103 9.32227C18.1826 9.88516 17.1237 10.3707 16.1998 10.3707C15.2464 10.3707 15.103 9.67462 15.3012 8.14063C15.3476 7.79688 15.7948 4.73751 13.4998 4.87071C12.4409 4.93516 10.7872 5.93633 6.34905 10.2848L8.09983 5.82891C9.38233 2.56758 5.85546 -0.680853 2.62811 1.41172L0.312019 2.99727C-0.000168151 3.19922 -0.0929806 3.62462 0.105301 3.94688L0.830926 5.10704C1.02921 5.4293 1.44686 5.52383 1.76327 5.31758L4.21014 3.6461C4.98639 3.14337 5.92718 3.95547 5.58968 4.81055L1.44686 15.3637C1.15999 16.0898 1.56077 17.25 2.69983 17.25C3.04999 17.25 3.39593 17.1125 3.65327 16.8461C5.43358 15.0328 10.1797 10.3707 12.5633 8.43282C12.4705 9.65743 12.4747 10.9637 13.4323 12.0336C14.0778 12.7555 15.0059 13.1207 16.1956 13.1207C17.6975 13.1207 19.0644 12.4934 20.5114 11.8316C21.9036 11.1957 24.688 9.1418 26.3501 9.0043C26.7087 8.97423 26.9914 8.69063 26.9914 8.3254V6.9461C26.9998 6.55508 26.675 6.22423 26.2911 6.25001Z" fill="white"/>
</svg>
