<svg width="30" height="24" viewBox="0 0 30 24" fill="none" xmlns="http://www.w3.org/2000/svg">
<path d="M13.777 1.99716C15.4335 2.43299 16.4639 3.15194 16.4824 4.0523L16.4831 10.3899C16.4625 11.6127 14.7344 12.2183 13.777 12.4702C10.729 13.2721 6.03554 13.2721 2.98756 12.4702C1.33105 12.0344 0.301006 11.3151 0.282227 10.4151V4.0523C0.301006 3.15194 1.33105 2.43299 2.98756 1.99716C6.03554 1.19495 10.729 1.19495 13.777 1.99716ZM21.5128 6.12692C20.9657 5.33463 22.1722 4.50159 22.7193 5.29388L23.3348 6.18822L25.8173 3.2182C26.4359 2.47835 27.562 3.42052 26.943 4.16037L23.8412 7.86989C23.5329 8.23839 22.9528 8.21713 22.6757 7.81603L21.5128 6.12692ZM24.2479 0.0741959C27.269 0.0741959 29.7181 2.52335 29.7181 5.5444C29.7181 8.56544 27.269 11.0146 24.2479 11.0146C21.2272 11.0146 18.7781 8.56544 18.7781 5.5444C18.7781 2.52335 21.2272 0.0741959 24.2479 0.0741959ZM24.2479 1.54468C22.039 1.54468 20.2486 3.33548 20.2486 5.5444C20.2486 7.75331 22.039 9.54376 24.2479 9.54376C26.4568 9.54376 28.2476 7.75331 28.2476 5.5444C28.2476 3.33548 26.4568 1.54468 24.2479 1.54468ZM24.7589 21.2442V19.7372C24.4017 19.9013 23.9871 20.0459 23.5237 20.1677C20.4757 20.9696 15.7822 20.9696 12.7342 20.1677C12.2707 20.0459 11.8562 19.9013 11.499 19.7372V21.2442C11.499 21.4026 12.1138 21.6439 13.1077 21.9054C15.8966 22.6392 20.3612 22.6392 23.1502 21.9054C24.1441 21.6439 24.7589 21.4026 24.7589 21.2442ZM24.7589 18.0878V16.5808C24.4017 16.7449 23.9871 16.8891 23.5237 17.011C20.4764 17.8132 15.7815 17.8132 12.7342 17.011C12.2704 16.8891 11.8562 16.7449 11.499 16.5808V18.0878C11.499 18.2462 12.1138 18.4871 13.1077 18.7486C15.8966 19.4828 20.3612 19.4828 23.1502 18.7486C24.1441 18.4871 24.7589 18.2462 24.7589 18.0878ZM26.2294 21.2442C26.2088 22.467 24.4807 23.0722 23.5237 23.3241C20.4757 24.126 15.7822 24.126 12.7342 23.3241C11.7772 23.0722 10.0491 22.467 10.0285 21.2442L10.0289 14.9062C10.0473 14.0062 11.0777 13.2869 12.7342 12.8511C15.7822 12.0493 20.4757 12.0493 23.5237 12.8511C25.1802 13.2869 26.2106 14.0062 26.229 14.9062L26.2294 21.2442ZM23.1502 14.2702C20.3612 13.536 15.8966 13.536 13.1077 14.2702C12.1138 14.5317 11.499 14.7727 11.499 14.931C11.499 15.0894 12.1138 15.3307 13.1077 15.5922C15.8959 16.3261 20.3619 16.3261 23.1502 15.5922C24.1441 15.3307 24.7589 15.0894 24.7589 14.931C24.7589 14.7727 24.1441 14.5317 23.1502 14.2702ZM15.0122 5.72652C14.6554 5.89093 14.2408 6.03479 13.777 6.15704C10.7301 6.9589 6.03483 6.9589 2.98756 6.15704C2.52409 6.03479 2.10952 5.89093 1.75236 5.72652V7.2335C1.75236 7.39189 2.36712 7.63319 3.36103 7.89469C6.14999 8.62852 10.6149 8.62852 13.4036 7.89469C14.3975 7.63319 15.0122 7.39189 15.0122 7.2335V5.72652ZM15.0122 8.88328C14.6554 9.04734 14.2408 9.19155 13.777 9.31344C10.729 10.1157 6.03554 10.1157 2.98756 9.31344C2.52409 9.19155 2.10952 9.04734 1.75236 8.88328V10.3899C1.75236 10.5486 2.36712 10.7896 3.36103 11.0511C6.14999 11.7853 10.6149 11.7853 13.4036 11.0511C14.3975 10.7896 15.0122 10.5486 15.0122 10.3899V8.88328ZM13.4036 3.41592C10.6149 2.68209 6.14999 2.68209 3.36103 3.41592C2.36712 3.67741 1.75236 3.91836 1.75236 4.0771C1.75236 4.23549 2.36712 4.47644 3.36103 4.73793C6.14928 5.47211 10.6153 5.47211 13.4039 4.73793C14.3975 4.47644 15.0122 4.23549 15.0122 4.0771C15.0122 3.91836 14.3975 3.67741 13.4036 3.41592Z" fill="white"/>
</svg>
